<?xml version="1.0" standalone="no"?>
<!DOCTYPE svg PUBLIC "-//W3C//DTD SVG 20010904//EN"
 "http://www.w3.org/TR/2001/REC-SVG-20010904/DTD/svg10.dtd">
<svg version="1.0" xmlns="http://www.w3.org/2000/svg"
 width="16.000000pt" height="16.000000pt" viewBox="0 0 16.000000 16.000000"
 preserveAspectRatio="xMidYMid meet">
<metadata>
Created by potrace 1.11, written by Peter Selinger 2001-2013
</metadata>
<g transform="translate(0.000000,16.000000) scale(0.002198,-0.002198)"
fill="#000000" stroke="none">
<path d="M3399 7276 c-2 -2 -42 -7 -89 -10 -85 -7 -123 -11 -190 -22 -19 -3
-51 -8 -70 -10 -19 -2 -46 -7 -60 -10 -24 -6 -34 -8 -90 -17 -14 -3 -82 -19
-151 -36 -319 -79 -660 -218 -938 -383 -63 -37 -116 -68 -117 -68 -6 0 -212
-145 -274 -194 -521 -404 -929 -944 -1163 -1537 -45 -114 -122 -342 -131 -389
-3 -14 -10 -43 -16 -65 -15 -61 -48 -206 -54 -240 -3 -16 -7 -48 -11 -70 -3
-23 -7 -51 -10 -64 -2 -13 -7 -52 -11 -85 -3 -34 -9 -97 -14 -141 -8 -84 -5
-585 4 -645 3 -19 8 -57 11 -85 5 -44 10 -82 31 -210 2 -16 7 -41 9 -55 3 -14
7 -34 9 -45 64 -327 213 -722 395 -1045 55 -98 214 -346 230 -360 3 -3 26 -32
51 -65 271 -363 684 -722 1100 -956 290 -164 661 -309 950 -374 194 -43 264
-54 500 -80 109 -12 626 -14 675 -2 11 3 56 8 100 12 44 4 82 8 86 10 3 2 25
6 50 9 24 3 55 8 69 11 24 5 35 7 105 21 733 144 1479 576 1975 1144 36 41 73
83 84 95 77 85 288 391 371 540 198 356 337 741 410 1140 11 59 30 194 42 300
16 141 8 682 -12 783 -2 10 -6 43 -10 73 -3 30 -8 61 -10 69 -2 8 -7 35 -10
60 -6 44 -34 173 -55 255 -6 22 -12 47 -14 55 -69 281 -234 667 -406 945 -49
80 -160 248 -169 255 -3 3 -26 32 -50 64 -71 96 -215 260 -318 363 -371 369
-808 650 -1298 835 -81 30 -278 94 -318 103 -12 2 -40 9 -62 15 -54 14 -68 18
-190 43 -64 14 -121 23 -200 33 -31 4 -99 13 -150 20 -39 5 -591 15 -596 10z"/>
</g>
</svg>
